<?xml version="1.0" encoding="utf-8"?>
<!-- Generator: Adobe Illustrator 13.0.0, SVG Export Plug-In . SVG Version: 6.00 Build 14948)  -->
<!DOCTYPE svg PUBLIC "-//W3C//DTD SVG 1.1//EN" "http://www.w3.org/Graphics/SVG/1.1/DTD/svg11.dtd">
<svg version="1.1" id="Layer_1" xmlns="http://www.w3.org/2000/svg" xmlns:xlink="http://www.w3.org/1999/xlink" x="0px" y="0px"
	 width="500px" height="440px" viewBox="0 0 500 440" enable-background="new 0 0 500 440" xml:space="preserve">
<linearGradient id="SVGID_1_" gradientUnits="userSpaceOnUse" x1="397.042" y1="102.7837" x2="591.0676" y2="-475.2933" gradientTransform="matrix(1 0 0 -1 -251 98)">
	<stop  offset="0" style="stop-color:#CBFA14"/>
	<stop  offset="1" style="stop-color:#09D7CB"/>
</linearGradient>
<path fill="url(#SVGID_1_)" d="M466.064,201.245c-1.351-54.823-16.686-87.176-36.34-109.232
	c-9.515-10.828-22.984-22.035-41.351-33.631c-48.93-30.896-171.924-16.439-206.672,28.997
	c-9.892,12.935-14.031,32.219-13.995,53.871c-61.679,20.429-108.831,63.71-129.637,85.4C14.861,248.273,0,281.461,0,318.682
	c0,65.161,45.536,117.983,101.708,117.983c16.422,0,31.931-4.521,45.663-12.539c24.84,6.867,52.507,10.707,81.679,10.707
	c29.065,0,56.638-3.811,81.405-10.631c20.266,8.82,39.463,13.656,53.621,12.521c38.989-3.132,70.858-17.771,89.987-122.986
	c7.984-39.26,11.66-72.012,12.058-99.548c0.055-0.692,0.109-1.378,0.163-2.075C466.58,208.271,466.488,204.656,466.064,201.245z"/>
<linearGradient id="SVGID_2_" gradientUnits="userSpaceOnUse" x1="293.2285" y1="68.0225" x2="487.1772" y2="-509.8253" gradientTransform="matrix(1 0 0 -1 -251 98)">
	<stop  offset="0" style="stop-color:#CBFA14"/>
	<stop  offset="1" style="stop-color:#09D7CB"/>
</linearGradient>
<path fill="url(#SVGID_2_)" d="M114.065,77.88c24.718,17.998,15.7,34.995-4.842,55.992c-22.172,22.665-70.906,43.118-84.507,29.163
	c-13.6-13.955-1.779-47.44,20.968-69.512C68.431,71.45,98.307,66.405,114.065,77.88z"/>
<linearGradient id="SVGID_3_" gradientUnits="userSpaceOnUse" x1="588.4248" y1="166.8574" x2="782.4177" y2="-411.1216" gradientTransform="matrix(1 0 0 -1 -251 98)">
	<stop  offset="0" style="stop-color:#CBFA14"/>
	<stop  offset="1" style="stop-color:#09D7CB"/>
</linearGradient>
<path fill="url(#SVGID_3_)" d="M463.604,347.828c-4.618,13.89-8.813,21.654,8.519,30.738c19.105,10.013,25.904-0.377,27.57-18.613
	c1.33-14.572-1.521-28.596-10.845-31.684C479.524,325.184,468.223,333.939,463.604,347.828z"/>
</svg>
